<?xml version="1.0" encoding="iso-8859-1"?>
<!-- Generator: Adobe Illustrator 19.0.0, SVG Export Plug-In . SVG Version: 6.00 Build 0)  -->
<svg xmlns="http://www.w3.org/2000/svg" xmlns:xlink="http://www.w3.org/1999/xlink" version="1.1" id="Capa_1" x="0px" y="0px" viewBox="0 0 512.001 512.001" style="enable-background:new 0 0 512.001 512.001;" xml:space="preserve" width="512px" height="512px">
<g>
	<g>
		<path d="M300.44,333.952c-1.859-1.86-4.439-2.931-7.069-2.931c-2.641,0-5.21,1.07-7.08,2.931c-1.86,1.859-2.92,4.439-2.92,7.069    s1.06,5.21,2.92,7.07c1.87,1.86,4.439,2.93,7.08,2.93c2.629,0,5.199-1.069,7.069-2.93c1.86-1.86,2.931-4.44,2.931-7.07    S302.301,335.811,300.44,333.952z" fill="#414242"/>
	</g>
</g>
<g>
	<g>
		<path d="M263.069,248.931c-1.859-1.86-4.439-2.93-7.069-2.93s-5.21,1.07-7.07,2.93s-2.93,4.44-2.93,7.07    c0,2.63,1.069,5.21,2.93,7.069c1.86,1.86,4.44,2.931,7.07,2.931s5.21-1.07,7.069-2.931c1.861-1.859,2.931-4.439,2.931-7.069    C266,253.371,264.93,250.791,263.069,248.931z" fill="#414242"/>
	</g>
</g>
<g>
	<g>
		<path d="M256,277.727c-5.522,0-10,4.478-10,10v15.024c0,5.522,4.478,10,10,10c5.522,0,10-4.478,10-10v-15.024    C266,282.205,261.523,277.727,256,277.727z" fill="#414242"/>
	</g>
</g>
<g>
	<g>
		<path d="M46.774,492.001H38.83v-68.35c0-4.045-2.437-7.691-6.173-9.239c-3.737-1.546-8.039-0.692-10.898,2.168L2.932,435.406    c-3.905,3.905-3.905,10.237,0,14.143c3.906,3.904,10.236,3.904,14.143,0l1.755-1.755v44.207h-7.944c-5.522,0-10,4.478-10,10    c0,5.522,4.478,10,10,10h35.889c5.522,0,10-4.478,10-10C56.775,496.479,52.296,492.001,46.774,492.001z" fill="#414242"/>
	</g>
</g>
<g>
	<g>
		<path d="M46.774,362.498H38.83v-68.351c0-4.045-2.437-7.691-6.173-9.239c-3.737-1.545-8.039-0.691-10.898,2.168L2.932,305.902    c-3.905,3.905-3.905,10.237,0,14.143c3.906,3.904,10.236,3.904,14.143,0l1.755-1.755v44.208h-7.944c-5.522,0-10,4.478-10,10    c0,5.522,4.478,10,10,10h35.889c5.522,0,10-4.478,10-10C56.775,366.976,52.296,362.498,46.774,362.498z" fill="#414242"/>
	</g>
</g>
<g>
	<g>
		<path d="M135.607,492.001h-7.944v-68.35c0-4.045-2.437-7.691-6.173-9.239c-3.738-1.546-8.039-0.692-10.898,2.168l-18.826,18.826    c-3.905,3.905-3.905,10.237,0,14.143c3.906,3.904,10.236,3.904,14.143,0l1.755-1.755v44.207H99.72c-5.522,0-10,4.478-10,10    c0,5.522,4.478,10,10,10h35.889c5.522,0,10-4.478,10-10C145.609,496.479,141.129,492.001,135.607,492.001z" fill="#414242"/>
	</g>
</g>
<g>
	<g>
		<path d="M313.274,492.001h-7.944v-68.35c0-4.045-2.437-7.691-6.173-9.239c-3.737-1.546-8.038-0.692-10.898,2.168l-18.826,18.826    c-3.905,3.905-3.905,10.237,0,14.143c3.906,3.904,10.236,3.904,14.143,0l1.755-1.755v44.207h-7.944c-5.522,0-10,4.478-10,10    c0,5.522,4.478,10,10,10h35.889c5.522,0,10-4.478,10-10C323.276,496.479,318.796,492.001,313.274,492.001z" fill="#414242"/>
	</g>
</g>
<g>
	<g>
		<path d="M402.107,492.001h-7.944v-68.35c0-4.045-2.437-7.691-6.173-9.239c-3.737-1.546-8.039-0.692-10.898,2.168l-18.826,18.826    c-3.905,3.905-3.905,10.237,0,14.143c3.906,3.904,10.236,3.904,14.143,0l1.755-1.755v44.207h-7.944c-5.522,0-10,4.478-10,10    c0,5.522,4.478,10,10,10h35.889c5.522,0,10-4.478,10-10C412.109,496.479,407.629,492.001,402.107,492.001z" fill="#414242"/>
	</g>
</g>
<g>
	<g>
		<path d="M403.132,362.498H394v-24.163c0-5.522-4.478-10-10-10c-5.522,0-10,4.478-10,10v24.163h-6.757c-5.522,0-10,4.478-10,10    c0,5.522,4.478,10,10,10h35.889c5.522,0,10-4.478,10-10C413.132,366.976,408.655,362.498,403.132,362.498z" fill="#414242"/>
	</g>
</g>
<g>
	<g>
		<path d="M502,222.571h-7.944V154.22c0-4.044-2.437-7.691-6.173-9.239c-3.737-1.548-8.039-0.692-10.898,2.167l-18.826,18.826    c-3.905,3.905-3.905,10.237,0,14.143c3.906,3.905,10.236,3.905,14.143,0l1.755-1.755v44.208h-7.944c-5.522,0-10,4.477-10,10    s4.478,10,10,10H502c5.522,0,10-4.477,10-10S507.523,222.571,502,222.571z" fill="#414242"/>
	</g>
</g>
<g>
	<g>
		<path d="M206.055,413.651c-21.75,0-39.445,17.695-39.445,39.445v19.46c0,21.75,17.695,39.445,39.445,39.445    s39.445-17.695,39.445-39.445v-19.46C245.5,431.346,227.805,413.651,206.055,413.651z M225.5,472.556    c0,10.723-8.723,19.445-19.445,19.445c-10.722,0-19.445-8.723-19.445-19.445v-19.46c0-10.723,8.723-19.445,19.445-19.445    c10.722,0,19.445,8.723,19.445,19.445V472.556z" fill="#414242"/>
	</g>
</g>
<g>
	<g>
		<path d="M39.446,144.22C17.696,144.22,0,161.915,0,183.665v19.459c0,21.75,17.695,39.446,39.445,39.446    s39.445-17.695,39.445-39.446v-19.459C78.891,161.915,61.196,144.22,39.446,144.22z M39.446,222.571    c-10.722,0-19.446-8.723-19.446-19.446v-19.459c0-10.722,8.723-19.445,19.445-19.445s19.445,8.723,19.445,19.445v19.459h0.001    C58.891,213.848,50.168,222.571,39.446,222.571z" fill="#414242"/>
	</g>
</g>
<g>
	<g>
		<path d="M123.824,362.498c-10.723,0-19.446-8.724-19.446-19.446v-19.459c0-5.522-4.478-10-10-10c-5.522,0-10,4.478-10,10v19.459    c0,21.75,17.695,39.446,39.446,39.446c5.522,0,10-4.478,10-10C133.824,366.976,129.346,362.498,123.824,362.498z" fill="#414242"/>
	</g>
</g>
<g>
	<g>
		<path d="M472.555,284.147c-21.75,0-39.445,17.695-39.445,39.445v19.459c0,21.751,17.695,39.446,39.445,39.446    S512,364.802,512,343.051v-19.459C512,301.842,494.305,284.147,472.555,284.147z M492,343.051    c0,10.723-8.723,19.446-19.445,19.446c-10.722,0-19.445-8.724-19.445-19.446v-19.459c0-10.723,8.723-19.445,19.445-19.445    c10.722,0,19.445,8.723,19.445,19.445V343.051z" fill="#414242"/>
	</g>
</g>
<g>
	<g>
		<path d="M472.555,413.651c-21.75,0-39.445,17.695-39.445,39.445v19.46c0,21.75,17.695,39.445,39.445,39.445    S512,494.306,512,472.556v-19.46C512,431.346,494.305,413.651,472.555,413.651z M492,472.556c0,10.723-8.723,19.445-19.445,19.445    c-10.722,0-19.445-8.723-19.445-19.445v-19.46c0-10.723,8.723-19.445,19.445-19.445c10.722,0,19.445,8.722,19.445,19.445V472.556z    " fill="#414242"/>
	</g>
</g>
<g>
	<g>
		<path d="M46.774,78.352H38.83V10.001c0-4.044-2.437-7.691-6.173-9.239C28.92-0.786,24.618,0.07,21.759,2.929L2.932,21.756    c-3.905,3.905-3.905,10.237,0,14.143c3.906,3.905,10.236,3.905,14.142,0l1.755-1.755v44.208h-7.944c-5.522,0-10,4.477-10,10    s4.478,10,10,10h35.889c5.522,0,10-4.477,10-10S52.296,78.352,46.774,78.352z" fill="#414242"/>
	</g>
</g>
<g>
	<g>
		<path d="M135.607,78.352h-7.944V10.001c0-4.044-2.437-7.691-6.173-9.239c-3.738-1.548-8.039-0.692-10.898,2.167L91.765,21.756    c-3.905,3.905-3.905,10.237,0,14.143c3.906,3.905,10.236,3.905,14.142,0l1.755-1.755v44.208h-7.944c-5.522,0-10,4.477-10,10    s4.478,10,10,10h35.889c5.522,0,10-4.477,10-10S141.129,78.352,135.607,78.352z" fill="#414242"/>
	</g>
</g>
<g>
	<g>
		<path d="M402.107,78.352h-7.944V10.001c0-4.044-2.437-7.691-6.173-9.239c-3.737-1.548-8.039-0.692-10.898,2.167l-18.826,18.826    c-3.905,3.905-3.905,10.237,0,14.143c3.905,3.906,10.235,3.906,14.141,0.001l1.755-1.755v44.208h-7.944c-5.522,0-10,4.477-10,10    s4.478,10,10,10h35.889c5.522,0,10-4.477,10-10S407.629,78.352,402.107,78.352z" fill="#414242"/>
	</g>
</g>
<g>
	<g>
		<path d="M472.555,0.001c-21.75,0-39.445,17.695-39.445,39.445v19.46c0,21.75,17.695,39.445,39.445,39.445S512,80.657,512,58.907    v-19.46C512,17.697,494.305,0.001,472.555,0.001z M492,58.907c0,10.722-8.723,19.445-19.445,19.445    c-10.722,0-19.445-8.723-19.445-19.445v-19.46c0-10.722,8.723-19.445,19.445-19.445c10.722,0,19.445,8.723,19.445,19.445V58.907z" fill="#414242"/>
	</g>
</g>
<g>
	<g>
		<path d="M384.15,144.22c-1.412,0-2.753,0.296-3.971,0.824c-5.624-11.275-17.271-19.043-30.704-19.043h-1.523V91.953    c0-32.668-17.612-63.171-45.963-79.606c-4.779-2.771-10.897-1.142-13.667,3.636c-2.77,4.778-1.142,10.897,3.636,13.667    c22.202,12.87,35.994,36.743,35.994,62.303v34.048h-20.976V91.953c0-28.108-22.867-50.976-50.976-50.976    c-28.109,0-50.976,22.868-50.976,50.976v34.048h-20.976V91.953c0-25.559,13.791-49.432,35.991-62.302    c4.777-2.77,6.405-8.889,3.636-13.667c-2.769-4.777-8.886-6.405-13.667-3.636c-28.349,16.435-45.96,46.938-45.96,79.604v34.049    h-1.523c-18.91,0-34.294,15.384-34.294,34.294v147.079c0,24.067,19.581,43.647,43.648,43.647h29.359v11.476h-7.944    c-5.522,0-10,4.478-10,10c0,5.522,4.478,10,10,10h35.889c5.522,0,10-4.478,10-10c0-5.522-4.478-10-10-10h-7.944v-11.476h29.266    c5.522,0,10-4.478,10-10c0-5.522-4.478-10-10-10H171.88c-13.04,0-23.648-10.608-23.648-23.647v-79.547h215.537v79.547    c0,13.039-10.608,23.647-23.648,23.647h-12.29c-5.522,0-10,4.478-10,10c0,5.522,4.478,10,10,10h12.29    c24.067,0,43.648-19.58,43.648-43.647v-64.823c0.127,0.005,0.252,0.019,0.381,0.019c21.75,0,39.445-17.695,39.445-39.446v-19.459    C423.595,161.915,405.9,144.22,384.15,144.22z M256.001,60.977c17.08,0,30.976,13.896,30.976,30.976v34.048h-61.951V91.953h-0.001    C225.025,74.873,238.921,60.977,256.001,60.977z M148.232,160.295c0-7.881,6.412-14.294,14.294-14.294h30.684l-44.978,44.979    V160.295z M159.669,207.828l61.233-61.233c0.19-0.191,0.364-0.392,0.536-0.593h48.305l-61.827,61.826H159.669z M284.626,207.828    h-48.425l61.827-61.827h47.866l-59.596,59.596C285.62,206.275,285.068,207.029,284.626,207.828z M363.77,207.828h-51.417    l50.979-50.979c0.275,1.106,0.438,2.256,0.438,3.447V207.828z M403.595,203.125c0,10.723-8.723,19.446-19.445,19.446    c-0.128,0-0.253,0.014-0.381,0.019v-58.389c0.127,0.005,0.252,0.019,0.381,0.019c10.723,0,19.445,8.723,19.445,19.445V203.125z" fill="#414242"/>
	</g>
</g>
<g>
	<g>
		<path d="M256.684,0.004L256,0.001c-5.522,0-10,4.477-10,10s4.478,10,10,10l0.539,0.003c0.024,0,0.049,0,0.074,0    c5.489,0,9.959-4.43,9.999-9.928C266.652,4.553,262.206,0.044,256.684,0.004z" fill="#414242"/>
	</g>
</g>
<g>
</g>
<g>
</g>
<g>
</g>
<g>
</g>
<g>
</g>
<g>
</g>
<g>
</g>
<g>
</g>
<g>
</g>
<g>
</g>
<g>
</g>
<g>
</g>
<g>
</g>
<g>
</g>
<g>
</g>
</svg>
